<svg id="Layer_1" data-name="Layer 1" xmlns="http://www.w3.org/2000/svg" viewBox="0 0 160.44 98.8"><defs><style>.cls-1{fill:#f3eee8;}</style></defs><path class="cls-1" d="M236.39,162a10.69,10.69,0,0,1,4.29,8.41c0,5.43-4.34,10-10.11,11a15.88,15.88,0,0,1,.3,3c0,7.74-5.64,14-12.61,14a11.4,11.4,0,0,1-4.75-1,13,13,0,0,1-10.66,5.24,13.34,13.34,0,0,1-9.2-3.55,14,14,0,0,1-23.43,2.54,13.43,13.43,0,0,1-8.72,3.12A12.76,12.76,0,0,1,150,198a14.41,14.41,0,0,1-3.18.37c-7,0-12.61-5-12.61-11.21a9.92,9.92,0,0,1,.65-3.53c-.22,0-.43,0-.65,0-7,0-12.62-5-12.62-11.22a10.33,10.33,0,0,1,2.23-6.35,11.05,11.05,0,0,1-6.43-9.76A10.74,10.74,0,0,1,122,147.7a11,11,0,0,1-6-9.55c0-6.19,5.65-11.21,12.61-11.21a13.35,13.35,0,0,1,2.11.17,10.12,10.12,0,0,1-.71-3.68c0-6.19,5.65-11.21,12.61-11.21a13.71,13.71,0,0,1,6.47,1.6,12.92,12.92,0,0,1,11-5.8,13.52,13.52,0,0,1,7.92,2.49,13.88,13.88,0,0,1,5.4-1.09,13.48,13.48,0,0,1,8.35,2.83,13.2,13.2,0,0,1,9.86-4.23,12.93,12.93,0,0,1,11.06,5.81,13.87,13.87,0,0,1,5.73-1.63c7-.44,12.9,4.22,13.29,10.4a9.64,9.64,0,0,1-.12,2.28c.29,0,.58,0,.88,0,7,0,12.61,5,12.61,11.21a10.37,10.37,0,0,1-2.75,7c4.87,1.56,8.35,5.68,8.35,10.54A10.66,10.66,0,0,1,236.39,162Z" transform="translate(-80.24 -108.02)"/><ellipse class="cls-1" cx="106.75" cy="120.41" rx="10.25" ry="9.11" transform="translate(-134.12 2.73) rotate(-45)"/><ellipse class="cls-1" cx="86.5" cy="115.24" rx="6.5" ry="5.78" transform="translate(-131.66 -34.51) rotate(-36.27)"/></svg>